<svg width="48" height="48" viewBox="0 0 48 48" fill="none" xmlns="http://www.w3.org/2000/svg">
<g clip-path="url(#clip0_46_2076)">
<path d="M18.2427 35.879C14.9009 35.879 12.1821 38.5977 12.1821 41.9395C12.1821 45.2813 14.9009 48.0001 18.2427 48.0001C21.5845 48.0001 24.3032 45.2813 24.3032 41.9395C24.3032 38.5977 21.5844 35.879 18.2427 35.879ZM18.2427 44.3637C16.9057 44.3637 15.8185 43.2765 15.8185 41.9395C15.8185 40.6026 16.9057 39.5154 18.2427 39.5154C19.579 39.5154 20.6668 40.6026 20.6668 41.9395C20.6668 43.2764 19.5796 44.3637 18.2427 44.3637Z" fill="white"/>
<path d="M36.1819 35.879C32.8401 35.879 30.1213 38.5977 30.1213 41.9395C30.1213 45.2813 32.8401 48.0001 36.1819 48.0001C39.5237 48.0001 42.2424 45.2813 42.2424 41.9395C42.2424 38.5977 39.5237 35.879 36.1819 35.879ZM36.1819 44.3637C34.8449 44.3637 33.7577 43.2765 33.7577 41.9395C33.7577 40.6026 34.8449 39.5154 36.1819 39.5154C37.5188 39.5154 38.6061 40.6026 38.6061 41.9395C38.6061 43.2764 37.5188 44.3637 36.1819 44.3637Z" fill="white"/>
<path d="M46.6955 11.8381C46.3501 11.4042 45.8265 11.1515 45.2725 11.1515H13.4367L11.784 2.79888C11.6392 2.06735 11.0622 1.49829 10.3283 1.36376L3.05565 0.0304565C2.06603 -0.15198 1.12056 0.503236 0.939346 1.49108C0.758128 2.47892 1.41203 3.42616 2.39997 3.60738L8.45685 4.71766L13.7925 31.6863C13.961 32.5379 14.7083 33.1517 15.5761 33.1517H41.0302C41.8769 33.1517 42.6109 32.5681 42.8017 31.742L47.0441 13.3787C47.1689 12.8387 47.0404 12.2714 46.6955 11.8381ZM39.5842 29.5155H17.0693L14.1561 14.7884H42.9859L39.5842 29.5155Z" fill="white"/>
</g>
<defs>
<clipPath id="clip0_46_2076">
<rect width="48" height="48" fill="white"/>
</clipPath>
</defs>
</svg>
