<svg xmlns="http://www.w3.org/2000/svg" viewBox="0 0 56.86 20.9"><defs><style>.cls-1,.cls-2{fill:#fff;}.cls-2{font-size:4.55px;font-family:Steppe-Regular, Steppe;letter-spacing:0.01em;}.cls-3{letter-spacing:0em;}</style></defs><g id="Layer_2" data-name="Layer 2"><g id="Layer_1-2" data-name="Layer 1"><path class="cls-1" d="M11.41,10C11.36,5.38.75,9.12.75,3.49.75,1.64,2.42,0,6.47,0,8,0,12.34.15,13.05,2.93l-2.2.78C10.85,1.78,9.31.33,6.51.33,4.63.33,2.87.67,2.87,2.89c0,3.65,11,.31,11,6.25,0,3.38-3.09,4-6.8,4-3.15,0-6.6-1-7.09-4.19l2.65-.81c0,3.12,1.42,4.7,4.44,4.7C9.76,12.81,11.43,12,11.41,10Z"/><path class="cls-1" d="M17.84,12.92H15.37V.25h2.47V6.43h6V.25h2.47V12.92H23.84V6.76h-6Z"/><path class="cls-1" d="M30.35,4.78H27.91C28.53,1.07,31.26,0,33.86,0c3,0,6,1.51,6,6.56s-3,6.55-6,6.55-6.07-1.33-6.07-6.82h9.63c0-4.23-1.25-6-3.56-6S30.55,1.9,30.35,4.78Zm7.07,1.83H30.26c0,3.53.91,6.19,3.6,6.19S37.42,10.21,37.42,6.61Z"/><path class="cls-1" d="M42,12.92h-.4V.25H44.1l5.11,11.44L54.35.25h2.51V12.92H54.37V1.11l-5,11,.34.78H47.28L42,1.09Z"/><text class="cls-2" transform="translate(18.53 19.59)">c<tspan class="cls-3" x="2.71" y="0">osiness</tspan></text></g></g></svg>