<svg width="194" height="45" viewBox="0 0 194 45" fill="none" xmlns="http://www.w3.org/2000/svg">
<path d="M38.9391 34.2466C38.7687 18.4247 2.62319 31.2329 2.62319 11.9521C2.62319 5.61644 8.31245 0 22.1098 0C27.3221 0 42.1073 0.513699 44.5261 10.0342L37.0313 12.7055C37.0313 6.09589 31.7849 1.13014 22.246 1.13014C15.8414 1.13014 9.84548 2.29452 9.84548 9.89726C9.84548 22.3973 47.3197 10.9589 47.3197 31.3014C47.3197 42.8767 36.7928 45 24.1538 45C13.4226 45 1.6693 41.5753 0 30.6507L9.02787 27.8767C9.02787 38.5616 13.8654 43.9726 24.1538 43.9726C33.3179 43.8699 39.0072 41.0959 38.9391 34.2466Z" fill="white"/>
<path d="M60.8443 44.2466H52.4297V0.856201H60.8443V22.0206H81.2848V0.856201H89.6994V44.2466H81.2848V23.1507H60.8443V44.2466Z" fill="white"/>
<path d="M103.463 16.3699H95.1505C97.2627 3.66438 106.563 0 115.421 0C125.641 0 135.861 5.17123 135.861 22.4658C135.861 39.7603 125.641 44.8973 115.421 44.8973C105.2 44.8973 94.7417 40.3425 94.7417 21.5411H127.549C127.549 7.05479 123.29 0.993151 115.421 0.993151C107.551 0.993151 104.144 6.50685 103.463 16.3699ZM127.549 22.637H103.156C103.156 34.726 106.256 43.8356 115.421 43.8356C124.585 43.8356 127.549 34.9658 127.549 22.637Z" fill="white"/>
<path d="M143.151 44.2466H141.789V0.856201H150.305L167.714 40.0343L185.225 0.856201H193.775V44.2466H185.293V3.80141L168.259 41.4726L169.417 44.1439H161.139L143.151 3.73291V44.2466Z" fill="white"/>
</svg>
