<svg xmlns="http://www.w3.org/2000/svg" viewBox="0 0 37.52 13.79"><defs><style>.cls-1,.cls-2{fill:#1d1d1b;}.cls-2{font-size:3px;font-family:Steppe-Regular, Steppe;}.cls-3{letter-spacing:0.01em;}</style></defs><g id="Layer_2" data-name="Layer 2"><g id="Layer_1-2" data-name="Layer 1"><path class="cls-1" d="M7.53,6.57c0-3-7-.55-7-4.27C.49,1.08,1.59,0,4.27,0c1,0,3.87.1,4.34,1.93l-1.45.52c0-1.27-1-2.23-2.87-2.23C3.06.22,1.9.44,1.9,1.91c0,2.41,7.26.2,7.26,4.12,0,2.23-2,2.62-4.48,2.62C2.6,8.65.32,8,0,5.89l1.75-.54c0,2.06.94,3.11,2.93,3.11C6.44,8.46,7.54,7.92,7.53,6.57Z"/><path class="cls-1" d="M11.77,8.53H10.14V.17h1.63V4.25h4V.17h1.63V8.53H15.73V4.46h-4Z"/><path class="cls-1" d="M20,3.15H18.42A3.59,3.59,0,0,1,22.34,0c2,0,4,1,4,4.33s-2,4.32-4,4.32-4-.87-4-4.5h6.35c0-2.79-.83-3.95-2.35-3.95S20.16,1.25,20,3.15Zm4.66,1.21H20c0,2.33.6,4.09,2.37,4.09S24.69,6.73,24.69,4.36Z"/><path class="cls-1" d="M27.72,8.53h-.26V.17H29.1l3.37,7.54L35.86.17h1.66V8.53H35.88V.73L32.6,8l.23.52H31.2L27.72.72Z"/><text class="cls-2" transform="translate(12.23 12.93)"><tspan class="cls-3">c</tspan><tspan x="1.79" y="0">osiness</tspan></text></g></g></svg>